# xmcd
#
# Track frame offsets:
#	150
#	11452
#	23712
#	35776
#	48379
#	60215
#	70963
#	82076
#	95882
#	107347
#	118622
#	131031
#	142050
#	152170
#	167957
#	183186
#	199488
#	212105
#	227166
#	243336
#
# Disc length: 3448 seconds
#
# Revision: 1
# Processed by: cddbd v1.5.2PL0 Copyright (c) Steve Scherf et al.
# Submitted via: audiograbber 1.83.01
#
DISCID=200d7614
DTITLE=Paul Anka - A Sentimental Journey of the Heart CD 1/1
DYEAR=2007
DGENRE=Jazz
TTITLE0=Diana
TTITLE1=Puppy Love
TTITLE2=Put Your Head On My Shoulder
TTITLE3=You Are My Destiny
TTITLE4=Lonely Boy
TTITLE5=Dance on Little Girl
TTITLE6=Crazy Love
TTITLE7=My Heart
TTITLE8=My Home Town
TTITLE9=The Story of My Love
TTITLE10=Summer's Gone
TTITLE11=It's Time To Cry
TTITLE12=Eso Beso
TTITLE13=(I Belive) There's Nothing Stronger Than Our Love
TTITLE14=One Man Woman, One Woman Man
TTITLE15=Times of Your Life
TTITLE16=(You're) Having My Baby
TTITLE17=I Don't Like To Sleep Alone
TTITLE18=Love Me Warm and Tender
TTITLE19=A Steel Guitar and a Glass of Wine
EXTD=Corrected song titles
EXTT0=
EXTT1=
EXTT2=
EXTT3=
EXTT4=
EXTT5=
EXTT6=
EXTT7=
EXTT8=
EXTT9=
EXTT10=
EXTT11=
EXTT12=
EXTT13=
EXTT14=
EXTT15=
EXTT16=
EXTT17=
EXTT18=
EXTT19=
PLAYORDER=
